<svg width="255" height="255" viewBox="0 0 255 255" fill="none" xmlns="http://www.w3.org/2000/svg">
<path fill-rule="evenodd" clip-rule="evenodd" d="M255 127.5C255 197.916 197.916 255 127.5 255C57.0837 255 0 197.916 0 127.5C0 57.0837 57.0837 0 127.5 0C197.916 0 255 57.0837 255 127.5ZM18.566 134.352C20.402 134.352 21.966 134.998 23.258 136.29C24.55 137.514 25.196 139.044 25.196 140.88C25.196 142.716 24.55 144.28 23.258 145.572C21.966 146.864 20.402 147.51 18.566 147.51C16.798 147.51 15.268 146.864 13.976 145.572C12.684 144.28 12.038 142.716 12.038 140.88C12.038 139.044 12.65 137.514 13.874 136.29C15.166 134.998 16.73 134.352 18.566 134.352ZM84.2134 147L54.8374 96.51V147H39.8434V73.968H55.2454L84.2134 123.642V73.968H99.2074V147H84.2134ZM129.146 115.584V134.454H168.722V147H114.152V73.968H166.886V86.514H129.146V103.038H164.132V115.584H129.146ZM212.005 86.514V147H197.011V86.514H174.775V73.968H233.221V86.514H212.005ZM85.472 200H90.08L99.728 171.2V200H103.904V165.632H97.808L87.824 195.536L77.6 165.632H71.552V200H75.68V171.2L85.472 200ZM116.401 189.68H129.649L133.201 200H138.049L126.001 165.632H120.337L108.097 200H112.753L116.401 189.68ZM123.121 170.384L128.401 185.984H117.505L123.121 170.384ZM169.118 165.632H164.75V189.2C164.75 191.376 164.062 193.12 162.686 194.432C161.086 195.904 158.814 196.64 155.87 196.64C153.086 196.64 150.926 196 149.39 194.72C147.854 193.408 147.086 191.568 147.086 189.2V165.632H142.718V189.2C142.718 192.464 143.742 195.104 145.79 197.12C148.158 199.392 151.518 200.528 155.87 200.528C159.646 200.528 162.702 199.632 165.038 197.84C167.758 195.792 169.118 192.912 169.118 189.2V165.632ZM181.934 200V165.632H177.47V200H181.934Z" fill="#979797"/>
</svg>
